<svg width="24" height="24" viewBox="0 0 24 24" fill="none" xmlns="http://www.w3.org/2000/svg">
<mask id="path-1-inside-1_5_10" fill="white">
<path d="M20 12C20 10.9494 19.7931 9.90914 19.391 8.93853C18.989 7.96793 18.3997 7.08601 17.6569 6.34315C16.914 5.60028 16.0321 5.011 15.0615 4.60896C14.0909 4.20693 13.0506 4 12 4C10.9494 4 9.90914 4.20693 8.93853 4.60896C7.96793 5.011 7.08601 5.60028 6.34315 6.34315C5.60028 7.08601 5.011 7.96793 4.60896 8.93853C4.20693 9.90914 4 10.9494 4 12L12 12H20Z"/>
</mask>
<path d="M20 12C20 10.9494 19.7931 9.90914 19.391 8.93853C18.989 7.96793 18.3997 7.08601 17.6569 6.34315C16.914 5.60028 16.0321 5.011 15.0615 4.60896C14.0909 4.20693 13.0506 4 12 4C10.9494 4 9.90914 4.20693 8.93853 4.60896C7.96793 5.011 7.08601 5.60028 6.34315 6.34315C5.60028 7.08601 5.011 7.96793 4.60896 8.93853C4.20693 9.90914 4 10.9494 4 12L12 12H20Z" stroke="white" stroke-width="2.4" mask="url(#path-1-inside-1_5_10)"/>
<mask id="path-2-inside-2_5_10" fill="white">
<path d="M20 13C20 14.0506 19.7931 15.0909 19.391 16.0615C18.989 17.0321 18.3997 17.914 17.6569 18.6569C16.914 19.3997 16.0321 19.989 15.0615 20.391C14.0909 20.7931 13.0506 21 12 21C10.9494 21 9.90914 20.7931 8.93853 20.391C7.96793 19.989 7.08601 19.3997 6.34315 18.6569C5.60028 17.914 5.011 17.0321 4.60896 16.0615C4.20693 15.0909 4 14.0506 4 13L12 13H20Z"/>
</mask>
<path d="M20 13C20 14.0506 19.7931 15.0909 19.391 16.0615C18.989 17.0321 18.3997 17.914 17.6569 18.6569C16.914 19.3997 16.0321 19.989 15.0615 20.391C14.0909 20.7931 13.0506 21 12 21C10.9494 21 9.90914 20.7931 8.93853 20.391C7.96793 19.989 7.08601 19.3997 6.34315 18.6569C5.60028 17.914 5.011 17.0321 4.60896 16.0615C4.20693 15.0909 4 14.0506 4 13L12 13H20Z" stroke="white" stroke-width="2.4" mask="url(#path-2-inside-2_5_10)"/>
<circle cx="12" cy="4" r="1.4" fill="#1D03BD" stroke="white" stroke-width="1.2"/>
</svg>
