<svg width="24" height="24" viewBox="0 0 24 24" fill="none" xmlns="http://www.w3.org/2000/svg">
<path d="M13.4499 14.98L8.87988 15.95L9.84988 11.38C9.91988 11.05 10.0799 10.75 10.3199 10.51L16.7199 4.10998C17.3999 3.42998 18.4999 3.42998 19.1799 4.10998L20.7099 5.63998C21.3899 6.31998 21.3899 7.41998 20.7099 8.09998L14.3099 14.5C14.0799 14.74 13.7799 14.91 13.4499 14.98Z" stroke="#999999" stroke-width="1.2" stroke-miterlimit="10" stroke-linecap="round" stroke-linejoin="round"/>
<path d="M18.6401 10.21V19.26C18.6401 20.33 17.7701 21.19 16.7101 21.19H5.5301C4.4601 21.19 3.6001 20.32 3.6001 19.26V8.08997C3.6001 7.01997 4.4701 6.15997 5.5301 6.15997H14.5501" stroke="#999999" stroke-width="1.2" stroke-miterlimit="10" stroke-linecap="round" stroke-linejoin="round"/>
</svg>
